# AST/ASF file generated using VICON BodyLanguage
# -----------------------------------------------
:version 1.10
:name VICON
:units
  mass 1.0
  length 0.45
  angle deg
:documentation
   .ast/.asf automatically generated from VICON data using
   VICON BodyBuilder and BodyLanguage model FoxedUp or BRILLIANT.MOD
:root
   order TX TY TZ RX RY RZ
   axis XYZ
   position 0 0 0  
   orientation 0 0 0 
:bonedata
  begin
     id 1 
     name lhipjoint
     direction 0.521689 -0.742065 0.420928 
     length 2.47002 
     axis 0 0 0  XYZ
  end
  begin
     id 2 
     name lfemur
     direction 0.34202 -0.939693 0  
     length 7.24654  
     axis 0 0 20  XYZ
    dof rx ry rz
    limits (-160.0 20.0)
           (-70.0 70.0)
           (-60.0 70.0)
  end
  begin
     id 3 
     name ltibia
     direction 0.34202 -0.939693 0   
     length 8.04849   
     axis 0 0 20   XYZ
    dof rx
    limits (-10.0 170.0)
  end
  begin
     id 4 
     name lfoot
     direction 0.0745411 -0.2048 0.975961   
     length 1.72367   
     axis -90 7.62852e-016 20   XYZ
    dof rx rz
    limits (-45.0 90.0)
           (-70.0 20.0)
  end
  begin
     id 5 
     name ltoes
     direction 1.53556e-011 -4.21901e-011 1   
     length 0.87311   
     axis -90 7.62852e-016 20   XYZ
    dof rx
    limits (-90.0 20.0)
  end
  begin
     id 6 
     name rhipjoint
     direction -0.52849 -0.738415 0.418857   
     length 2.48223  
     axis 0 0 0  XYZ 
  end
  begin
     id 7 
     name rfemur
     direction -0.34202 -0.939693 0   
     length 7.15571   
     axis 0 0 -20   XYZ
    dof rx ry rz
    limits (-160.0 20.0)
           (-70.0 70.0)
           (-70.0 60.0)
  end
  begin
     id 8 
     name rtibia
     direction -0.34202 -0.939693 0   
     length 7.81659   
     axis 0 0 -20   XYZ
    dof rx
    limits (-10.0 170.0)
 end
 begin
     id 9 
     name rfoot
     direction -0.0917348 -0.252039 0.963359   
     length 1.84382  
     axis -90 -7.62852e-016 -20   XYZ
    dof rx rz
    limits (-45.0 90.0)
           (-20.0 70.0)
  end
  begin
     id 10 
     name rtoes
     direction -1.53551e-011 -4.21879e-011 1   
     length 0.927771   
     axis -90 -7.62852e-016 -20   XYZ
    dof rx
    limits (-90.0 20.0)
  end
  begin
     id 11 
     name lowerback
     direction 0.00583058 0.999822 0.0179296   
     length 2.1429   
     axis 0 0 0   XYZ
    dof rx ry rz
    limits (-20.0 45.0)
           (-30.0 30.0)
           (-30.0 30.0)
  end
  begin
     id 12 
     name upperback
     direction -0.0137999 0.999752 -0.0175071   
     length 2.14252   
     axis 0 0 0   XYZ
    dof rx ry rz
    limits (-20.0 45.0)
           (-30.0 30.0)
           (-30.0 30.0)
  end
  begin
     id 13 
     name thorax
     direction -0.0158036 0.99955 -0.0254909   
     length 2.1383   
     axis 0 0 0   XYZ
    dof rx ry rz
    limits (-20.0 45.0)
           (-30.0 30.0)
           (-30.0 30.0)
  end
  begin
     id 14 
     name lowerneck
     direction -0.0101179 0.999403 -0.0330262   
     length 1.65808   
     axis 0 0 0   XYZ
    dof rx ry rz
    limits (-20.0 45.0)
           (-30.0 30.0)
           (-30.0 30.0)
  end
  begin
     id 15 
     name upperneck
     direction 0.0497734 0.995978 -0.074501   
     length 1.5897   
     axis 0 0 0   XYZ
    dof rx ry rz
    limits (-20.0 45.0)
           (-30.0 30.0)
           (-30.0 30.0)
  end
  begin
     id 16
     name head
     direction 0.0189524 0.999519 -0.0245438  
     length 1.74024  
     axis 0 0 0   XYZ
    dof rx ry rz
    limits (-20.0 45.0)
           (-30.0 30.0)
           (-30.0 30.0)
  end
  begin
     id 17 
     name lclavicle
     direction 0.945604 0.324422 0.0241537  
     length 3.59089  
     axis 0 0 0   XYZ
    dof ry rz
    limits (-20.0 10.0)
           (0.0 20.0)
  end
  begin
     id 18 
     name lhumerus
     direction 1 -4.48964e-011 -2.63524e-027   
     length 5.2391   
     axis 180 -30 -90   XYZ
    dof rx ry rz
    limits (-60.0 90.0)
           (-90.0 90.0)
           (-90.0 90.0)
  end
  begin
     id 19
     name lradius
     direction 1 -4.48969e-011 3.86978e-028   
     length 3.31467   
     axis 180 -30 -90   XYZ
    dof rx
    limits (-10.0 170.0)
  end
  begin
     id 20
     name lwrist
     direction 1 -4.48963e-011 7.20928e-028   
     length 1.65734   
     axis -5.52449e-016 90 90   XYZ
    dof ry
    limits (-180.0 0.0)
 end
  begin
     id 21 
     name lhand
     direction 1 -4.48964e-011 1.44186e-027   
     length 0.9659   
     axis -9.20027e-016 90 90   XYZ
    dof rx rz
    limits (-90.0 90.0)
           (-45.0 45.0)
  end
  begin
     id 22 
     name lfingers
     direction 1 -4.48965e-011 2.88371e-027   
     length 0.778733   
     axis -1.84005e-015 90 90   XYZ
    dof rx
    limits (0.0 90.0)
  end
  begin
     id 23
     name lthumb
     direction 0.707107 -6.34931e-011 0.707107   
     length 1.11811   
     axis -90 45 2.85299e-015   XYZ
    dof rx rz
    limits (-45.0 45.0)
           (-45.0 45.0)
  end
  begin
     id 24 
     name rclavicle
     direction -0.923762 0.370785 0.0958234   
     length 3.54196  
     axis 0 0 0   XYZ 
    dof ry rz
    limits (-10.0 20.0)
           (-20.0 0.0)
  end
  begin
     id 25 
     name rhumerus
     direction -1 -4.48966e-011 1.18702e-017  
     length 5.30252   
     axis 180 30 90   XYZ
    dof rx ry rz
    limits (-90.0 60.0)
           (-90.0 90.0)
           (-90.0 90.0)
  end
  begin
     id 26 
     name rradius
     direction -1 -4.48966e-011 4.46736e-027   
     length 3.67875   
     axis 180 30 90   XYZ
    dof rx
    limits (-10.0 170.0)
  end
  begin
     id 27 
     name rwrist
     direction -1 -4.48966e-011 7.20928e-028   
     length 1.83937   
     axis -5.52449e-016 -90 -90   XYZ
    dof ry
    limits (-180.0 0.0)
  end
  begin
     id 28
     name rhand
     direction -1 -4.48973e-011 1.44186e-027   
     length 0.594811   
     axis -9.20027e-016 -90 -90   XYZ
    dof rx rz
    limits (-90.0 90.0)
           (-45.0 45.0)
  end
  begin
     id 29
     name rfingers
     direction -1 -4.48963e-011 2.88371e-027   
     length 0.479552   
     axis -1.84005e-015 -90 -90   XYZ
    dof rx
    limits (0.0 90.0)
  end
  begin
     id 30
     name rthumb
     direction -0.707107 -6.34932e-011 0.707107   
     length 0.688544   
     axis -90 -45 -2.85299e-015   XYZ
    dof rx rz
    limits (-45.0 45.0)
           (-45.0 45.0)
  end
:hierarchy
  begin
    root lhipjoint rhipjoint lowerback
    lhipjoint lfemur
    lfemur ltibia
    ltibia lfoot
    lfoot ltoes
    rhipjoint rfemur
    rfemur rtibia
    rtibia rfoot
    rfoot rtoes
    lowerback upperback
    upperback thorax
    thorax lowerneck lclavicle rclavicle
    lowerneck upperneck
    upperneck head
    lclavicle lhumerus
    lhumerus lradius
    lradius lwrist
    lwrist lhand lthumb
    lhand lfingers
    rclavicle rhumerus
    rhumerus rradius
    rradius rwrist
    rwrist rhand rthumb
    rhand rfingers
  end

#!OML:ASF E:\acrobat2\Project_11_07_03\Capture day 1\Session 1\Acrobat.ASF
:FULLY-SPECIFIED
:DEGREES
492
root 14.6909 6.25579 17.3119 -150.42 39.573 -24.1115
lowerback 35.6707 -2.11444 2.12513
upperback 18.3198 -0.705067 -2.18297
thorax 2.12208 0.663153 -3.16899
lowerneck -1.34176 -1.2758 2.84175
upperneck 17.2917 -1.58794 -1.37898
head 5.38713 -0.620896 -0.977315
rclavicle -4.13472e-014 -7.03698e-014
rhumerus -16.6234 -16.0602 2.49732
rradius 19.5314
rwrist 13.5787
rhand -18.7337 -62.9444
rfingers 7.12502
rthumb 7.5622 92.7892
lclavicle -4.13472e-014 -7.03698e-014
lhumerus 22.8579 -42.6677 -23.362
lradius 21.7826
lwrist 370.091
lhand 17.7274 6.23143
lfingers 7.12502
lthumb 42.4124 30.6818
rfemur -88.5419 -24.7583 3.79159
rtibia 48.0392
rfoot -7.57011 -10.5626
rtoes 10.7986
lfemur -93.3536 15.0574 -1.77085
ltibia 48.8264
lfoot 5.16769 1.99021
ltoes -9.78718
493
root 14.7164 6.2139 17.3346 -150.577 39.7203 -24.6661
lowerback 35.9263 -2.10049 2.01416
upperback 18.2814 -0.69709 -2.16444
thorax 1.99752 0.663214 -3.09239
lowerneck -1.34815 -1.3216 2.65358
upperneck 17.4006 -1.69085 -1.02812
head 5.42564 -0.657998 -0.842158
rclavicle -2.54444e-014 2.82274e-014
rhumerus -16.8933 -15.6401 2.75764
rradius 19.7571
rwrist 12.6978
rhand -17.9596 -62.5107
rfingers 7.12502
rthumb 8.3093 92.3273
lclavicle -2.54444e-014 2.82274e-014
lhumerus 22.8011 -42.079 -23.0176
lradius 21.7489
lwrist 369.532
lhand 17.2771 5.9344
lfingers 7.12502
lthumb 41.9906 30.5276
rfemur -88.7145 -24.7812 3.53621
rtibia 48.6782
rfoot -7.49619 -10.9123
rtoes 8.49485
lfemur -93.6752 14.6382 -2.45868
ltibia 49.0444
lfoot 5.44886 1.31198
ltoes -5.72845
494
root 14.7392 6.18021 17.3573 -150.566 40.2028 -25.1687
lowerback 36.0186 -1.91634 1.5678
upperback 18.179 -0.595661 -2.16779
thorax 1.86515 0.677419 -2.89202
lowerneck -1.23339 -1.26853 2.00125
upperneck 17.4129 -1.69578 -0.192397
head 5.42433 -0.643906 -0.47165
rclavicle 1.27222e-014 1.38354e-013
rhumerus -16.8266 -16.2779 3.02011
rradius 19.7636
rwrist 13.0015
rhand -21.1019 -63.3378
rfingers 7.12502
rthumb 5.27595 93.2521
lclavicle 1.27222e-014 1.38354e-013
lhumerus 22.6586 -41.8306 -22.6891
lradius 21.8422
lwrist 369.76
lhand 16.2092 6.43
lfingers 7.12502
lthumb 40.9886 31.35
rfemur -89.2204 -24.5949 3.33983
rtibia 49.3666
rfoot -7.73789 -10.8189
rtoes 7.50684
lfemur -94.0152 14.5254 -3.15215
ltibia 49.2683
lfoot 5.67635 0.80421
ltoes -4.96209
495
root 14.7629 6.14932 17.3891 -150.471 40.8772 -25.6263
lowerback 36.0522 -1.6244 1.00476
upperback 18.067 -0.391319 -2.20503
thorax 1.74733 0.740017 -2.6969
lowerneck -1.28873 -1.12573 1.33079
upperneck 17.7337 -1.57 0.597309
head 5.54747 -0.563527 -0.107824
rclavicle 1.59028e-014 1.66184e-013
rhumerus -16.7362 -17.1168 3.2421
rradius 19.6443
rwrist 13.2801
rhand -17.5032 -62.5702
rfingers 7.12502
rthumb 8.74975 92.3688
lclavicle 1.59028e-014 1.66184e-013
lhumerus 23.0145 -42.078 -23.0646
lradius 22.0803
lwrist 370.954
lhand 15.2469 7.18613
lfingers 7.12502
lthumb 40.084 32.3868
rfemur -89.9018 -24.2734 3.19737
rtibia 50.0718
rfoot -7.7146 -9.89262
rtoes 11.9438
lfemur -94.3625 14.6468 -3.99578
ltibia 49.5247
lfoot 5.94945 0.178622
ltoes -8.22838
496
root 14.7882 6.11642 17.4289 -150.538 41.0506 -26.2201
lowerback 36.2459 -1.55795 0.902305
upperback 17.936 -0.322998 -2.18151
thorax 1.54452 0.76781 -2.63976
lowerneck -0.232614 -1.34197 3.00324
upperneck 16.6389 -1.57963 -1.81074
head 4.99084 -0.633702 -1.12395
rclavicle 0 9.14409e-014
rhumerus -17.0215 -16.8169 3.61424
rradius 19.6947
rwrist 12.5935
rhand -17.1016 -62.6095
rfingers 7.12502
rthumb 9.13727 92.3916
lclavicle 0 9.14409e-014
lhumerus 24.5418 -43.1955 -24.9283
lradius 22.4581
lwrist 373.268
lhand 15.0894 7.51197
lfingers 7.12502
lthumb 39.9358 32.7574
rfemur -90.272 -24.3106 2.99195
rtibia 50.7153
rfoot -7.47804 -10.3057
rtoes 9.87704
lfemur -94.9028 14.4392 -5.00675
ltibia 49.8801
lfoot 6.34537 -0.615036
ltoes -9.74707
497
root 14.8101 6.0849 17.4691 -150.877 40.8646 -27.2746
lowerback 36.4405 -1.66371 0.929231
upperback 17.7893 -0.444175 -2.15936
thorax 1.31361 0.701859 -2.59562
lowerneck -0.0243998 -1.54046 2.37067
upperneck 16.6675 -1.92448 -1.06349
head 4.97197 -0.797033 -0.800027
rclavicle -6.36111e-014 -7.87187e-014
rhumerus -17.4117 -17.4779 4.06848
rradius 19.6627
rwrist 12.9888
rhand -15.8774 -62.2453
rfingers 7.12502
rthumb 10.3184 91.9721
lclavicle -6.36111e-014 -7.87187e-014
lhumerus 24.5964 -42.1216 -24.2752
lradius 22.4062
lwrist 372.237
lhand 15.7565 7.10741
lfingers 7.12502
lthumb 40.5632 32.161
rfemur -90.4675 -24.7881 2.45711
rtibia 51.3878
rfoot -7.28708 -9.80113
rtoes 9.30637
lfemur -95.6991 13.8723 -6.56111
ltibia 50.2334
lfoot 7.02623 -1.52242
ltoes -11.768
498
root 14.8363 6.04277 17.4719 -150.881 41.5729 -27.4908
lowerback 36.4458 -1.4728 0.657835
upperback 17.8686 -0.255978 -2.26723
thorax 1.40996 0.801699 -2.62234
lowerneck -0.121792 -1.65295 2.16905
upperneck 16.6706 -2.11444 -0.795229
head 4.99175 -0.88842 -0.692446
rclavicle 1.59028e-014 6.04305e-014
rhumerus -17.3695 -18.3847 4.25278
rradius 19.6102
rwrist 13.2227
rhand -18.0152 -62.5064
rfingers 7.12502
rthumb 8.25565 92.3251
lclavicle 1.59028e-014 6.04305e-014
lhumerus 23.9559 -40.9508 -23.1247
lradius 22.2925
lwrist 370.739
lhand 15.9495 6.91258
lfingers 7.12502
lthumb 40.7446 31.9096
rfemur -90.7822 -24.4361 2.49416
rtibia 52.0009
rfoot -6.75498 -9.30022
rtoes 7.25864
lfemur -95.6211 13.8192 -6.76888
ltibia 50.6739
lfoot 6.81704 -1.6439
ltoes -14.9769
499
root 14.868 6.02025 17.4908 -150.47 41.5418 -27.603
lowerback 36.1856 -1.6089 0.331777
upperback 18.085 -0.56418 -2.20078
thorax 1.72558 0.602685 -2.28874
lowerneck -0.935569 -1.46752 2.32914
upperneck 16.845 -1.86328 -0.994378
head 5.18277 -0.767125 -0.778586
rclavicle 2.22639e-014 8.90555e-014
rhumerus -16.3494 -19.6646 3.77735
rradius 19.5535
rwrist 13.1861
rhand -19.3353 -62.6456
rfingers 7.12502
rthumb 6.98148 92.5104
lclavicle 2.22639e-014 8.90555e-014
lhumerus 21.7984 -39.2861 -21.0655
lradius 22.0715
lwrist 368.804
lhand 15.3151 6.98874
lfingers 7.12502
lthumb 40.1481 32.1699
rfemur -91.1843 -24.5685 2.6107
rtibia 52.6694
rfoot -6.75517 -9.01517
rtoes 9.98237
lfemur -96.1394 13.5059 -6.80354
ltibia 51.0817
lfoot 6.8941 -1.53432
ltoes -13.6193
500
root 14.8821 6.00182 17.5359 -150.453 41.0568 -28.0266
lowerback 36.2918 -1.81228 0.603643
upperback 18.0506 -0.737265 -2.03617
thorax 1.64468 0.522216 -2.20714
lowerneck -0.882415 -1.55434 1.44785
upperneck 16.8432 -2.06867 -0.0623823
head 5.19043 -0.86408 -0.351597
rclavicle 6.36111e-014 9.30312e-014
rhumerus -16.5191 -20.7404 3.98125
rradius 19.6514
rwrist 13.4659
rhand -22.2054 -63.0516
rfingers 7.12502
rthumb 4.21045 92.9898
lclavicle 6.36111e-014 9.30312e-014
lhumerus 21.3904 -38.1739 -20.2496
lradius 21.9972
lwrist 367.761
lhand 14.8501 6.97687
lfingers 7.12502
lthumb 39.7105 32.2896
rfemur -91.1154 -24.872 2.27859
rtibia 53.3502
rfoot -6.82391 -8.85895
rtoes 12.4369
lfemur -96.7059 13.0173 -7.4698
ltibia 51.4387
lfoot 7.39721 -1.66411
ltoes -10.7276
501
root 14.9108 5.9939 17.5473 -150.738 41.2882 -29.0637
lowerback 36.1302 -1.83458 0.200372
upperback 18.0545 -0.907941 -2.1199
thorax 1.70108 0.399444 -2.03408
lowerneck -0.730799 -1.61267 1.33024
upperneck 16.5217 -2.15179 0.00901693
head 5.06672 -0.913045 -0.310724
rclavicle 5.40694e-014 2.23434e-013
rhumerus -16.3698 -23.262 4.15469
rradius 19.5743
rwrist 15.1242
rhand -12.793 -61.9033
rfingers 7.12502
rthumb 13.2927 91.4594
lclavicle 5.40694e-014 2.23434e-013
lhumerus 21.3261 -38.1805 -20.3215
lradius 22.0541
lwrist 368.213
lhand 14.8101 6.99641
lfingers 7.12502
lthumb 39.6728 32.3203
rfemur -91.4655 -25.2208 1.68095
rtibia 53.9151
rfoot -6.09079 -8.63983
rtoes 10.8102
lfemur -97.1654 12.5157 -8.4267
ltibia 51.8473
lfoot 7.35832 -1.41658
ltoes -10.0273
